<svg id="Layer_1" data-name="Layer 1" xmlns="http://www.w3.org/2000/svg" viewBox="0 0 500 500"><defs><style>.cls-1{fill:#202020}</style></defs><title>expertise-JLB-logo</title><path class="cls-1" d="M78.12 393c0 8.51-4.82 11.08-11.91 11.08h-5.74V382h6.36c6.47 0 11.29 2.5 11.29 11zm46.12-41.88c-8.72 0-10.16 7.6-10.16 27.2s1.44 27.2 10.16 27.2 10.16-7.49 10.16-27.2-1.4-27.17-10.16-27.17zm26.9-259.34h-.32l-11 51h22.25zM76.48 362.12c0-7-3.39-9.54-10.68-9.54h-5.33v19.19h4.21c8.1 0 11.8-2.77 11.8-9.65zm156.24-11c-8.72 0-10.16 7.6-10.16 27.2s1.44 27.2 10.16 27.2 10.16-7.49 10.16-27.2-1.43-27.17-10.16-27.17zM500 0v500H0V0zM106.8 185.54h23.84l5.25-24h30.19l5.24 24h23.84l-30-113.47h-28.32zm.1 92.57v-17.25h26.16v-12.11h-41V322h42v-12.08H106.9v-19.71h24.63V278.1zM39.08 154.55c0 17.8 5.88 33.21 30 33.21 23.2 0 34.17-9.85 34.17-34V72.07H80.39v81c0 12.08-1.91 17.8-10.17 17.8s-10.17-5.72-10.17-17.8v-3.5h-21zM45.67 322h40.95v-12.08H60.45v-61.17H45.67zm47.84 71.5c0-9.75-5.23-15.91-13.35-17v-.21c7.29-2.05 11.08-8.11 11.08-16 0-14.06-8.73-18.58-20.83-18.58H45.69V415h24.94c17.24 0 22.89-10 22.89-21.47zm55.66-15.19c0-22.27-2.77-38.08-24.94-38.08S99.3 356.07 99.3 378.34s2.77 38.08 24.94 38.08 24.94-15.81 24.94-38.08zm53.68 15.6c0-8.93-2.87-14.57-14-19.4l-11.39-4.92c-6.26-2.67-7.6-5.44-7.6-10 0-4.31 1.74-8.52 8.42-8.52 5.65 0 8 4 8 10.88h14.22V360c0-14.06-9.55-19.7-22.68-19.7-14 0-22.68 7.29-22.68 21.55 0 12.21 6.06 17.65 19.19 22.17 9.75 3.38 13.14 5.85 13.14 12.52 0 6.16-4.31 9-8.83 9-7.8 0-9.75-4.41-9.75-11.29v-2.16h-14.78v3c0 13.55 6.57 21.35 23.3 21.35 16.01-.02 25.45-7 25.45-22.5zm57.07 22.17l-7.9-8c4.82-7 5.64-17.34 5.64-29.76 0-22.27-2.77-38.08-24.94-38.08s-24.94 15.8-24.94 38.08 2.77 38.08 24.94 38.08a39.5 39.5 0 0 0 5.23-.31 19.32 19.32 0 0 0 4.52-1.13l8.72 9zm1.74-230.57L281.85 95h.32v90.58h21V72.07H269.3l-16.37 80.1h-.32l-16.21-80.1h-34v113.47h21V95h.32l20.18 90.58zm49.46 156.19h-14.78v51.11c0 7.29-1.74 12.73-8.62 12.73s-8.62-5.44-8.62-12.73V341.7h-14.78v51.11c0 19.61 11.4 23.61 23.4 23.61s23.4-4.93 23.4-23.61zM316 185.54h65v-18.75h-42.1v-30.52H377v-18.74h-38.1V90.82h40.52V72.07H316zm44.87 217.33h-27.2v-19.71h24.63v-12.1h-24.61v-17.25h26.17V341.7h-40.95V415h42zm50.32-61.17h-46.8v12.11h16V415h14.81v-61.19h16zM462.55 153c0-13.82-4.45-22.56-21.61-30l-17.64-7.7c-9.69-4.13-11.76-8.42-11.76-15.42 0-6.67 2.7-13.19 13-13.19 8.74 0 12.4 6.2 12.4 16.85h21.93v-3.18c0-21.77-14.78-30.51-35.12-30.51-21.61 0-35.12 11.28-35.12 33.37 0 18.91 9.38 27.34 29.72 34.33 15.1 5.24 20.34 9.06 20.34 19.39 0 9.53-6.67 14-13.67 14-12.08 0-15.1-6.83-15.1-17.48v-3.36h-22.86v4.61c0 21 10.17 33.05 36.07 33.05 24.8 0 39.42-10.76 39.42-34.76z"/></svg>