<svg id="Layer_1" data-name="Layer 1" xmlns="http://www.w3.org/2000/svg" viewBox="0 0 100 100"><defs><style>.cls-1{fill:#444}</style></defs><title>expertise-facebook</title><path id="facebook" class="cls-1" d="M91.25 95H8.75A3.75 3.75 0 0 1 5 91.25V8.75A3.75 3.75 0 0 1 8.75 5h82.5A3.75 3.75 0 0 1 95 8.75v82.5A3.75 3.75 0 0 1 91.25 95zm-38.4 0h14V59.38h11.28L80 46.25H66.88v-8.36c0-3.93 1.09-6.61 6.73-6.61h7.19V19.13a96.23 96.23 0 0 0-10.48-.54c-10.37 0-17.47 6.33-17.47 18v9.7H40.62v13.09h12.23z"/></svg>