<svg id="Layer_1" data-name="Layer 1" xmlns="http://www.w3.org/2000/svg" viewBox="0 0 100 100"><defs><style>.cls-1{fill:#444}</style></defs><title>expertise-instagram</title><path id="instagram" class="cls-1" d="M72.5 95h-45C15.94 95 5 84.06 5 72.5v-45C5 15.94 15.94 5 27.5 5h45C84.06 5 95 15.94 95 27.5v45C95 84.06 84.06 95 72.5 95zm-45-78.75c-5.26 0-11.25 6-11.25 11.25v45c0 5.36 5.89 11.25 11.25 11.25h45c5.26 0 11.25-6 11.25-11.25v-45c0-5.26-6-11.25-11.25-11.25zm45.82 16a5.4 5.4 0 1 1 5.4-5.4 5.4 5.4 0 0 1-5.4 5.44zM50 72.5A22.5 22.5 0 1 1 72.5 50 22.52 22.52 0 0 1 50 72.5zm0-33.75A11.25 11.25 0 1 0 61.25 50 11.26 11.26 0 0 0 50 38.75z"/></svg>