<svg id="Layer_1" data-name="Layer 1" xmlns="http://www.w3.org/2000/svg" viewBox="0 0 100 100"><defs><style>.cls-1{fill:#444}</style></defs><title>expertise-youtube</title><path id="youtube" class="cls-1" d="M93.12 32.94A125.31 125.31 0 0 1 94 46.75v6.47A125.31 125.31 0 0 1 93.12 67s-.86 5.88-3.5 8.47c-3.35 3.4-7.1 3.41-8.82 3.61C68.49 80 50 80 50 80s-22.88-.2-29.92-.86c-2-.36-6.36-.25-9.7-3.65C7.74 72.91 6.88 67 6.88 67A125.13 125.13 0 0 1 6 53.22v-6.47a125.13 125.13 0 0 1 .88-13.81s.86-5.88 3.5-8.47c3.35-3.4 7.1-3.41 8.82-3.61C31.51 20 50 20 50 20s18.47 0 30.79.86c1.72.2 5.47.22 8.82 3.61 2.65 2.6 3.51 8.47 3.51 8.47zm-52.2 28.13l23.77-11.95-23.78-12z"/></svg>