<svg id="Layer_1" data-name="Layer 1" xmlns="http://www.w3.org/2000/svg" viewBox="0 0 100 100"><defs><style>.cls-1{fill:#444}</style></defs><title>expertise-linkedin</title><path id="linkedin" class="cls-1" d="M88.34 5A6.58 6.58 0 0 1 95 11.49v77A6.58 6.58 0 0 1 88.34 95h-76.7A6.57 6.57 0 0 1 5 88.51v-77A6.57 6.57 0 0 1 11.64 5zm-70 33.74v42.95H31.7V38.74zM25 17.39a7.74 7.74 0 1 0 7.74 7.74A7.74 7.74 0 0 0 25 17.39zm15.07 21.35v42.95H53.4V60.45c0-5.6 1.06-11 8-11s6.94 6.41 6.94 11.39v20.85h13.35V58.13c0-11.57-2.5-20.46-16-20.46-6.49 0-10.85 3.56-12.63 6.94h-.18v-5.87z"/></svg>